<?xml version="1.0" standalone="no"?>
<!DOCTYPE svg PUBLIC "-//W3C//DTD SVG 20010904//EN"
 "http://www.w3.org/TR/2001/REC-SVG-20010904/DTD/svg10.dtd">
<svg version="1.0" xmlns="http://www.w3.org/2000/svg"
 width="512.000000pt" height="512.000000pt" viewBox="0 0 512.000000 512.000000"
 preserveAspectRatio="xMidYMid meet">

<g transform="translate(0.000000,512.000000) scale(0.100000,-0.100000)"
fill="#000000" stroke="none">
<path d="M0 2560 l0 -2560 2560 0 2560 0 0 2560 0 2560 -2560 0 -2560 0 0
-2560z m2630 80 c0 -269 3 -397 11 -414 7 -14 23 -28 39 -31 26 -6 27 -7 17
-50 -9 -41 -13 -45 -39 -45 -38 0 -81 23 -105 56 l-19 26 -30 -27 c-97 -90
-251 -85 -355 12 -73 69 -94 125 -94 258 0 91 4 118 22 157 26 58 95 134 144
158 80 41 179 35 253 -15 20 -14 39 -25 41 -25 3 0 5 74 5 165 l0 165 55 0 55
0 0 -390z m-1885 114 c33 -8 63 -18 68 -23 6 -6 -20 -101 -28 -101 -1 0 -19 7
-38 15 -45 19 -137 19 -180 1 -43 -17 -93 -76 -106 -123 -14 -51 -14 -137 1
-186 17 -56 82 -122 134 -136 43 -11 125 -2 164 19 31 17 37 12 54 -37 9 -26
16 -48 16 -49 0 -1 -24 -11 -52 -21 -36 -12 -82 -18 -143 -18 -76 0 -97 4
-138 25 -59 29 -111 85 -140 148 -31 69 -31 247 -1 313 70 150 221 217 389
173z m597 6 c45 -13 93 -52 114 -92 l16 -30 30 36 c16 20 51 48 76 64 39 22
59 27 117 27 81 0 126 -21 162 -74 38 -56 43 -97 43 -348 l0 -243 -54 0 -54 0
-4 238 c-3 218 -5 240 -24 272 -13 23 -32 39 -56 47 -57 19 -104 1 -165 -64
l-53 -54 -2 -217 -3 -217 -55 0 -55 0 -5 240 c-6 268 -9 283 -74 310 -59 25
-134 -9 -198 -90 -22 -28 -23 -38 -28 -245 l-5 -215 -50 0 -50 0 -3 323 -2
322 55 0 55 0 0 -46 0 -46 50 45 c67 61 140 79 222 57z m2265 -2 c49 -12 123
-75 123 -104 0 -10 21 3 60 39 48 45 70 58 115 68 78 17 154 0 200 -47 58 -58
66 -105 63 -375 l-3 -234 -55 0 -55 0 -5 240 c-3 155 -9 247 -17 260 -22 39
-52 58 -91 58 -48 0 -87 -21 -137 -73 l-40 -41 -5 -222 -5 -222 -57 -3 -57 -3
-3 238 c-3 219 -5 241 -24 273 -13 23 -32 39 -56 47 -55 18 -102 1 -164 -62
l-54 -53 -2 -219 -3 -218 -55 0 -55 0 -3 323 -2 322 55 0 55 0 0 -45 c0 -25 5
-45 10 -45 6 0 10 4 10 9 0 15 79 73 118 87 46 17 81 17 139 2z m1115 -14 c27
-9 50 -20 53 -24 3 -5 -2 -27 -11 -50 -13 -31 -21 -39 -33 -34 -137 57 -270
38 -279 -40 -5 -39 19 -61 102 -92 184 -69 236 -119 236 -224 0 -64 -20 -102
-71 -140 -94 -68 -289 -65 -397 6 l-22 15 21 42 c12 23 22 43 24 45 1 1 29
-10 61 -25 47 -22 74 -28 131 -28 89 0 126 22 131 77 4 48 -29 75 -152 122
-110 43 -158 82 -176 143 -30 99 35 192 157 223 51 12 167 5 225 -16z m-1740
-495 c29 -15 50 -72 39 -103 -21 -54 -88 -72 -135 -35 -21 16 -26 29 -26 64 0
35 5 48 26 64 29 23 65 27 96 10z"/>
<path d="M2302 2658 c-43 -14 -108 -86 -121 -134 -14 -52 -14 -137 1 -187 17
-56 82 -122 135 -136 55 -15 115 -1 162 37 l36 29 3 161 2 160 -35 30 c-36 29
-96 53 -131 51 -11 -1 -34 -6 -52 -11z"/>
</g>
</svg>
