<svg xmlns="http://www.w3.org/2000/svg"  viewBox="0 0 48 48" width="20" height="20"><linearGradient id="Yjxgqidz2JT1PABcYtFE5a" x1="31.645" x2="31.645" y1="6.839" y2="40.615" gradientUnits="userSpaceOnUse"><stop offset="0" stop-color="#e68e00"/><stop offset=".036" stop-color="#e38400"/><stop offset=".171" stop-color="#db6200"/><stop offset=".299" stop-color="#d44a00"/><stop offset=".417" stop-color="#d03b00"/><stop offset=".515" stop-color="#cf3600"/><stop offset=".878" stop-color="#d22900"/><stop offset="1" stop-color="#d42400"/></linearGradient><path fill="url(#Yjxgqidz2JT1PABcYtFE5a)" d="M35.883,7.341C37.726,7.85,39,9.508,39,11.397v25.162c0,1.906-1.301,3.57-3.168,4.065	L24.29,43.863L28,36V11l-3.148-6.885L35.883,7.341z"/><linearGradient id="Yjxgqidz2JT1PABcYtFE5b" x1="13.922" x2="29.051" y1="34.951" y2="41.073" gradientUnits="userSpaceOnUse"><stop offset="0" stop-color="#f52537"/><stop offset=".293" stop-color="#f32536"/><stop offset=".465" stop-color="#ea2434"/><stop offset=".605" stop-color="#dc2231"/><stop offset=".729" stop-color="#c8202c"/><stop offset=".841" stop-color="#ae1e25"/><stop offset=".944" stop-color="#8f1a1d"/><stop offset="1" stop-color="#7a1818"/></linearGradient><path fill="url(#Yjxgqidz2JT1PABcYtFE5b)" d="M28,35v3.927c0,3.803-3.824,6.249-7.019,4.491l-6.936-4.445	c-0.802-0.466-1.236-1.462-0.964-2.457C13.334,35.59,14.202,35,15.115,35H28z"/><linearGradient id="Yjxgqidz2JT1PABcYtFE5c" x1="5.382" x2="25.874" y1="32.289" y2="1.78" gradientUnits="userSpaceOnUse"><stop offset="0" stop-color="#d96ab1"/><stop offset=".137" stop-color="#d9538b"/><stop offset=".495" stop-color="#d91a2a"/><stop offset=".575" stop-color="#d31a29"/><stop offset=".68" stop-color="#c21926"/><stop offset=".8" stop-color="#a71821"/><stop offset=".929" stop-color="#811619"/><stop offset="1" stop-color="#691515"/></linearGradient><path fill="url(#Yjxgqidz2JT1PABcYtFE5c)" d="M21.946,4.526l-11.924,6.786C8.772,12.024,8,13.351,8,14.789v18.429	c0,1.357,1.459,2.215,2.645,1.554l4.472-2.491C15.662,31.978,16,31.402,16,30.778V17.743c0-1.307,0.78-2.48,1.963-2.949L28,11.308	v-3.09C28,5.014,24.669,2.983,21.946,4.526z"/></svg>