<?xml version="1.0" standalone="no"?>
<!DOCTYPE svg PUBLIC "-//W3C//DTD SVG 20010904//EN"
 "http://www.w3.org/TR/2001/REC-SVG-20010904/DTD/svg10.dtd">
<svg version="1.0" xmlns="http://www.w3.org/2000/svg"
 width="512.000000pt" height="512.000000pt" viewBox="0 0 512.000000 512.000000"
 preserveAspectRatio="xMidYMid meet">
<metadata>
Created by potrace 1.14, written by Peter Selinger 2001-2017
</metadata>
<g transform="translate(0.000000,512.000000) scale(0.100000,-0.100000)"
fill="#000000" stroke="none">
<path d="M10 2560 l0 -2210 2550 0 2550 0 0 2210 0 2210 -2550 0 -2550 0 0
-2210z m4400 981 c14 -1 16 -135 14 -1288 0 -709 -2 -1296 -3 -1306 0 -10 -6
-15 -12 -11 -14 8 -184 8 -198 0 -6 -4 -11 -3 -11 1 0 10 -53 9 -69 -2 -6 -3
-11 -3 -11 2 0 9 -201 9 -225 -1 -8 -3 -15 -2 -15 2 0 8 -203 7 -225 -2 -8 -3
-15 -2 -15 2 0 8 -203 7 -225 -2 -8 -3 -15 -2 -15 2 0 8 -363 7 -385 -2 -8 -3
-15 -2 -15 2 0 8 -203 7 -225 -2 -8 -3 -15 -2 -15 2 0 8 -203 7 -225 -2 -8 -3
-15 -2 -15 2 0 8 -203 7 -225 -2 -8 -3 -15 -2 -15 2 0 9 -54 7 -69 -3 -6 -3
-11 -3 -11 2 0 9 -201 9 -225 -1 -8 -3 -15 -2 -15 2 0 4 -18 7 -40 7 -22 0
-40 -4 -40 -8 0 -5 -5 -5 -12 -1 -16 10 -68 11 -68 1 0 -5 -5 -5 -12 -1 -16
10 -68 11 -68 1 0 -5 -5 -5 -12 -1 -16 10 -68 11 -68 1 0 -5 -5 -5 -12 -1 -14
9 -203 9 -217 -1 -6 -3 -11 -3 -11 2 0 9 -201 9 -225 -1 -8 -3 -15 -2 -15 2 0
4 -54 7 -120 7 -66 0 -120 -4 -120 -8 0 -5 -5 -5 -12 -1 -16 10 -68 11 -68 1
0 -5 -5 -5 -12 -1 -16 10 -68 11 -68 1 0 -5 -6 -5 -12 0 -7 4 -22 7 -33 8 -20
0 -20 7 -21 1295 0 712 0 1297 2 1300 2 4 3660 5 3714 1z"/>
<path d="M1494 3053 c-61 -21 -106 -67 -121 -123 -10 -36 -9 -107 1 -129 16
-35 74 -97 399 -425 158 -160 287 -293 287 -297 0 -27 -248 -45 -273 -20 -6 6
-19 11 -28 11 -15 0 -186 -165 -325 -312 -47 -49 -68 -84 -59 -98 3 -6 2 -10
-2 -10 -11 0 -7 -111 4 -119 4 -3 9 -12 11 -19 5 -25 77 -82 112 -89 71 -14
134 -2 173 34 17 15 52 49 79 76 26 26 53 47 60 47 6 0 9 3 5 6 -3 4 12 22 34
40 23 19 38 34 36 34 -3 0 19 24 50 53 97 91 518 517 521 528 3 9 -565 581
-728 733 -91 84 -155 106 -236 79z"/>
<path d="M2729 1732 l-26 -3 -1 -154 -1 -153 32 -5 c18 -2 34 -1 37 4 3 4 12
4 19 0 8 -5 27 -5 42 -1 16 5 29 6 29 2 0 -4 16 -7 35 -8 19 0 35 3 35 8 0 5
7 5 17 0 9 -6 29 -6 45 -2 15 5 28 6 28 2 0 -4 16 -7 35 -8 19 0 35 3 35 8 0
5 7 5 17 0 9 -6 29 -6 45 -2 15 5 28 6 28 2 0 -4 16 -7 35 -8 19 0 35 3 35 8
0 5 7 5 17 0 9 -6 29 -6 45 -2 15 5 28 6 28 2 0 -4 16 -7 35 -8 19 0 35 3 35
8 0 5 7 5 17 0 9 -6 29 -6 45 -2 15 5 28 6 28 2 0 -4 16 -7 35 -8 19 0 35 3
35 8 0 5 7 5 17 0 9 -6 29 -6 45 -2 15 5 28 6 28 2 0 -4 16 -7 35 -8 19 0 35
3 35 7 0 4 8 6 18 5 15 -1 17 12 17 153 l0 155 -505 0 c-278 1 -517 0 -531 -2z"/>
</g>
</svg>
